<?xml version="1.0" encoding="UTF-8"?><svg id="uuid-2ccf6656-b8a9-45fc-95e6-3ee21c990c91" xmlns="http://www.w3.org/2000/svg" viewBox="0 0 229.32 58.53"><defs><style>.uuid-03b7fda2-8fd5-465b-9649-cbcfa3536031{fill:#030002;}</style></defs><g id="uuid-e1df3fc4-1860-465e-96c4-19dfb7f313a1"><path class="uuid-03b7fda2-8fd5-465b-9649-cbcfa3536031" d="M197.37,0h7.88c.63.13,1.25.29,1.89.38,7.39.95,13.68,3.64,17.92,9.43,1.89,2.58,3.18,5.4,3.41,8.75-2.29,0-4.4-.08-6.49.03-1.39.07-1.91-.46-2.21-1.58-.82-3.06-2.68-5.53-5.49-7.38-10.33-6.83-26.05-3.42-31.73,6.92-2.91,5.29-3.71,10.95-3.01,16.74,1.31,10.82,9.53,20.11,24.36,18.98,8.49-.65,15.34-5.57,17.25-12.94.43-1.67.44-3.43.68-5.36h-20.37v-6.27h27.85v29.66c-1.09-.02-2.18-.13-3.26-.04-1.56.14-2.38-.3-2.71-1.78-.35-1.64-1.02-3.22-1.66-5.17-3.52,3.93-7.84,6.17-12.9,7.28-1.47.32-2.94.6-4.42.9h-7c-.33-.12-.64-.29-.98-.34-11.6-1.68-19.4-7.55-23.55-17.45-.14-.33-.33-.65-.5-.97-.12.02-.23.05-.35.07v18.69h-7.88c-.04-.79-.12-1.58-.12-2.36,0-14.56,0-29.12-.01-43.68,0-.47-.08-.94-.13-1.4-.45.27-.59.56-.71.85-4.5,10.84-9.03,21.66-13.51,32.51-1.93,4.68-3.76,9.39-5.64,14.09h-7.44c-6.57-15.82-13.15-31.64-19.72-47.46-.49,1.08-.49,2.06-.49,3.03.03,14.81.05,29.62.08,44.43h-7.88c-.06-4.72-.12-9.45-.16-14.18-.03-2.7,0-5.41,0-8.36-.3.32-.45.41-.47.51-.13.51-.22,1.03-.33,1.55-2.23,10.31-8.58,17.18-20.2,19.59-1.68.35-3.39.6-5.08.89h-26.7V11.21c-.14-.02-.27-.05-.41-.07-6.57,15.8-13.15,31.59-19.72,47.39h-7.44c-.2-.69-.33-1.4-.61-2.07-6-14.47-12.01-28.93-18.02-43.4-.29-.69-.6-1.38-.9-2.07-.39.63-.44,1.19-.44,1.74,0,14.41,0,28.83,0,43.24,0,.85-.1,1.7-.15,2.55H0V.79c3.21-.02,6.42.04,9.62-.09,1.57-.06,2.27.42,2.81,1.76,4.4,10.81,8.9,21.58,13.38,32.36,1.93,4.66,3.87,9.32,5.94,14.31.39-.77.66-1.22.86-1.69,5.51-13.23,11.01-26.47,16.53-39.7.95-2.27,1.31-5.42,3.15-6.54,1.93-1.17,5.31-.48,8.06-.45,8.15.09,16.35-.16,24.46.48,12.3.97,20.21,7.77,22.84,18.65.1.41.29.8.43,1.2.13-.02.27-.04.4-.05V.73c3.28,0,6.33.07,9.38-.03,1.54-.05,2.28.37,2.84,1.74,6.17,15.05,12.42,30.07,18.65,45.09.18.44.45.84.84,1.56,1.49-3.56,2.82-6.75,4.15-9.95,5.1-12.26,10.2-24.52,15.33-36.77.25-.6.83-1.53,1.29-1.54,3.61-.13,7.23-.07,11.07-.07v19.02c.6-.64.85-1.31,1.12-1.98,3.38-8.59,9.76-14.35,19.56-16.85,1.53-.39,3.1-.63,4.65-.94ZM64.43,51.91c5.52,0,10.99.27,16.41-.06,9.6-.57,15.57-5.2,18.02-13.62,1.69-5.84,1.6-11.76.18-17.62-1.91-7.91-7.13-12.39-16.03-13.13-6-.5-12.08-.21-18.13-.26-.12,0-.24.12-.45.25v44.45Z"/></g></svg>